<?xml version="1.0" encoding="UTF-8" standalone="no"?>
<svg width="43px" height="49px" viewBox="0 0 43 49" version="1.1" xmlns="http://www.w3.org/2000/svg" xmlns:xlink="http://www.w3.org/1999/xlink" xmlns:sketch="http://www.bohemiancoding.com/sketch/ns">
    <!-- Generator: Sketch 3.1.1 (8761) - http://www.bohemiancoding.com/sketch -->
    <title>arrows</title>
    <desc>Created with Sketch.</desc>
    <defs></defs>
    <g id="Page-1" stroke="none" stroke-width="1" fill="none" fill-rule="evenodd" sketch:type="MSPage">
        <g id="arrows" sketch:type="MSLayerGroup">
            <path d="M7.8252365,13.968998 C8.0582545,14.2053283 8.0582545,14.5864219 7.8252365,14.8227523 C7.592218,15.0590826 7.2157375,15.0590826 6.9827195,14.8227523 L0.1747635,7.92731315 C-0.0582545,7.6909828 -0.0582545,7.3090172 0.1747635,7.0735589 L6.9827195,0.17724775 C7.2157375,-0.0590826 7.592218,-0.0590826 7.8252365,0.17724775 C8.0582545,0.4135781 8.0582545,0.79467165 7.8252365,1.031002 L1.6172155,7.5 L7.8252365,13.968998 L7.8252365,13.968998 Z" id="Shape" fill="#D70014" sketch:type="MSShapeGroup" transform="translate(4.000000, 7.500000) scale(-1, 1) translate(-4.000000, -7.500000) "></path>
            <path d="M17.8252365,13.968998 C18.0582545,14.2053283 18.0582545,14.5864219 17.8252365,14.8227523 C17.592218,15.0590826 17.2157375,15.0590826 16.9827195,14.8227523 L10.1747635,7.92731315 C9.9417455,7.6909828 9.9417455,7.3090172 10.1747635,7.0735589 L16.9827195,0.17724775 C17.2157375,-0.0590826 17.592218,-0.0590826 17.8252365,0.17724775 C18.0582545,0.4135781 18.0582545,0.79467165 17.8252365,1.031002 L11.6172155,7.5 L17.8252365,13.968998 L17.8252365,13.968998 Z" id="Shape-2" fill="#FFFFFF" sketch:type="MSShapeGroup" transform="translate(14.000000, 7.500000) scale(-1, 1) translate(-14.000000, -7.500000) "></path>
            <path d="M7.8252365,33.968998 C8.0582545,34.2053284 8.0582545,34.5864219 7.8252365,34.8227523 C7.592218,35.0590826 7.2157375,35.0590826 6.9827195,34.8227523 L0.1747635,27.9273132 C-0.0582545,27.6909828 -0.0582545,27.3090172 0.1747635,27.0735589 L6.9827195,20.1772478 C7.2157375,19.9409174 7.592218,19.9409174 7.8252365,20.1772478 C8.0582545,20.4135781 8.0582545,20.7946717 7.8252365,21.031002 L1.6172155,27.5 L7.8252365,33.968998 L7.8252365,33.968998 Z" id="Shape" fill="#D70014" sketch:type="MSShapeGroup"></path>
            <path d="M17.8252365,33.968998 C18.0582545,34.2053284 18.0582545,34.5864219 17.8252365,34.8227523 C17.592218,35.0590826 17.2157375,35.0590826 16.9827195,34.8227523 L10.1747635,27.9273132 C9.9417455,27.6909828 9.9417455,27.3090172 10.1747635,27.0735589 L16.9827195,20.1772478 C17.2157375,19.9409174 17.592218,19.9409174 17.8252365,20.1772478 C18.0582545,20.4135781 18.0582545,20.7946717 17.8252365,21.031002 L11.6172155,27.5 L17.8252365,33.968998 L17.8252365,33.968998 Z" id="Shape-2" fill="#FFFFFF" sketch:type="MSShapeGroup"></path>
            <g id="Rectangle-6-+-Shape-3" transform="translate(20.000000, 26.000000)" sketch:type="MSShapeGroup">
                <rect id="Rectangle-6" fill="#000000" transform="translate(11.500000, 11.500000) scale(-1, 1) translate(-11.500000, -11.500000) " x="0" y="0" width="23" height="23" rx="1"></rect>
                <path d="M11.5007947,11.4800829 L16.1550477,6.67636084 C16.7852058,6.04347823 16.7852058,5.00367156 16.1443826,4.35992931 C15.500742,3.7133569 14.4562192,3.7133569 13.8125786,4.35992931 L7.8561015,10.3362463 C7.21454945,10.9783414 7.21454945,12.0200354 7.85561742,12.6640235 L13.8131129,18.6406071 C14.4562192,19.2866431 15.500742,19.2866431 16.1443826,18.6400707 C16.7852058,17.9963284 16.7852058,16.9565218 16.1443826,16.3127795 L11.5007947,11.4800829 Z" id="Shape-3" fill="#FFFFFF" transform="translate(12.000000, 11.500000) scale(-1, 1) translate(-12.000000, -11.500000) "></path>
            </g>
            <g id="Rectangle-6-+-Shape-4" transform="translate(31.500000, 11.500000) scale(-1, 1) translate(-31.500000, -11.500000) translate(20.000000, 0.000000)" sketch:type="MSShapeGroup">
                <rect id="Rectangle-6" fill="#000000" transform="translate(11.500000, 11.500000) scale(-1, 1) translate(-11.500000, -11.500000) " x="0" y="0" width="23" height="23" rx="1"></rect>
                <path d="M11.5007947,11.4800829 L16.1550477,6.67636084 C16.7852058,6.04347823 16.7852058,5.00367156 16.1443826,4.35992931 C15.500742,3.7133569 14.4562192,3.7133569 13.8125786,4.35992931 L7.8561015,10.3362463 C7.21454945,10.9783414 7.21454945,12.0200354 7.85561742,12.6640235 L13.8131129,18.6406071 C14.4562192,19.2866431 15.500742,19.2866431 16.1443826,18.6400707 C16.7852058,17.9963284 16.7852058,16.9565218 16.1443826,16.3127795 L11.5007947,11.4800829 Z" id="Shape-3" fill="#FFFFFF" transform="translate(12.000000, 11.500000) scale(-1, 1) translate(-12.000000, -11.500000) "></path>
            </g>
        </g>
    </g>
</svg>