<?xml version="1.0" encoding="UTF-8" standalone="no"?>
<svg width="80px" height="108px" viewBox="0 0 80 108" version="1.1" xmlns="http://www.w3.org/2000/svg" xmlns:xlink="http://www.w3.org/1999/xlink" xmlns:sketch="http://www.bohemiancoding.com/sketch/ns">
    <!-- Generator: Sketch 3.1.1 (8761) - http://www.bohemiancoding.com/sketch -->
    <title>drop</title>
    <desc>Created with Sketch.</desc>
    <defs></defs>
    <g id="Page-1" stroke="none" stroke-width="1" fill="none" fill-rule="evenodd" sketch:type="MSPage">
        <g id="drop" sketch:type="MSLayerGroup" transform="translate(-1.000000, -7.000000)">
            <g transform="translate(1.000000, 7.000000)" sketch:type="MSShapeGroup">
                <path d="M40,108 C62.0913911,108 80,90.8922183 80,69.7886978 C80,48.6851773 40,3.19620187e-15 40,3.19620187e-15 C40,3.19620187e-15 0,48.6851773 0,69.7886978 C0,90.8922183 17.9086089,108 40,108 Z" fill="#F0A1A7"></path>
                <path d="M40,95 C55.4639738,95 68,82.9611907 68,68.1105651 C68,53.2599396 40,19 40,19 C40,19 12,53.2599396 12,68.1105651 C12,82.9611907 24.5360262,95 40,95 Z" fill="#E6656D"></path>
                <path d="M40,83 C49.3888412,83 57,75.7133522 57,66.7248157 C57,57.7362792 40,37 40,37 C40,37 23,57.7362792 23,66.7248157 C23,75.7133522 30.6111588,83 40,83 Z" fill="#D70014"></path>
            </g>
        </g>
    </g>
</svg>