<?xml version="1.0" encoding="UTF-8" standalone="no"?>
<svg width="56px" height="30px" viewBox="0 0 56 30" version="1.1" xmlns="http://www.w3.org/2000/svg" xmlns:xlink="http://www.w3.org/1999/xlink" xmlns:sketch="http://www.bohemiancoding.com/sketch/ns">
    <!-- Generator: Sketch 3.1.1 (8761) - http://www.bohemiancoding.com/sketch -->
    <title>icon-more</title>
    <desc>Created with Sketch.</desc>
    <defs></defs>
    <g id="Page-1" stroke="none" stroke-width="1" fill="none" fill-rule="evenodd" sketch:type="MSPage">
        <g id="icon-more" sketch:type="MSLayerGroup">
            <path d="M15.650473,27.937996 C16.116509,28.4106567 16.116509,29.1728438 15.650473,29.6455045 C15.184436,30.1181652 14.431475,30.1181652 13.965439,29.6455045 L0.349527,15.8546263 C-0.116509,15.3819656 -0.116509,14.6180344 0.349527,14.1471178 L13.965439,0.3544955 C14.431475,-0.1181652 15.184436,-0.1181652 15.650473,0.3544955 C16.116509,0.8271562 16.116509,1.5893433 15.650473,2.062004 L3.234431,15 L15.650473,27.937996 L15.650473,27.937996 Z" id="Shape" fill="#D70014" sketch:type="MSShapeGroup" transform="translate(8.000000, 15.000000) scale(-1, 1) translate(-8.000000, -15.000000) "></path>
            <path d="M35.650473,27.937996 C36.116509,28.4106567 36.116509,29.1728438 35.650473,29.6455045 C35.184436,30.1181652 34.431475,30.1181652 33.965439,29.6455045 L20.349527,15.8546263 C19.883491,15.3819656 19.883491,14.6180344 20.349527,14.1471178 L33.965439,0.3544955 C34.431475,-0.1181652 35.184436,-0.1181652 35.650473,0.3544955 C36.116509,0.8271562 36.116509,1.5893433 35.650473,2.062004 L23.234431,15 L35.650473,27.937996 L35.650473,27.937996 Z" id="Shape-2" fill="#FFFFFF" sketch:type="MSShapeGroup" transform="translate(28.000000, 15.000000) scale(-1, 1) translate(-28.000000, -15.000000) "></path>
            <path d="M55.650473,27.937996 C56.116509,28.4106567 56.116509,29.1728438 55.650473,29.6455045 C55.184436,30.1181652 54.431475,30.1181652 53.965439,29.6455045 L40.349527,15.8546263 C39.883491,15.3819656 39.883491,14.6180344 40.349527,14.1471178 L53.965439,0.3544955 C54.431475,-0.1181652 55.184436,-0.1181652 55.650473,0.3544955 C56.116509,0.8271562 56.116509,1.5893433 55.650473,2.062004 L43.234431,15 L55.650473,27.937996 L55.650473,27.937996 Z" id="Shape-3" fill="#90000D" sketch:type="MSShapeGroup" transform="translate(48.000000, 15.000000) scale(-1, 1) translate(-48.000000, -15.000000) "></path>
        </g>
    </g>
</svg>