<?xml version="1.0" encoding="UTF-8" standalone="no"?>
<svg width="275px" height="197px" viewBox="0 0 275 197" version="1.1" xmlns="http://www.w3.org/2000/svg" xmlns:xlink="http://www.w3.org/1999/xlink" xmlns:sketch="http://www.bohemiancoding.com/sketch/ns">
    <!-- Generator: Sketch Beta 3.2 (9790) - http://www.bohemiancoding.com/sketch -->
    <title>logo</title>
    <desc>Created with Sketch Beta.</desc>
    <defs></defs>
    <g id="Page-1" stroke="none" stroke-width="1" fill="none" fill-rule="evenodd" sketch:type="MSPage">
        <g id="logo" sketch:type="MSLayerGroup" transform="translate(4.000000, 4.000000)">
            <path d="M132.733,188 L199.483,48 L65.983,48 L132.733,188 L132.733,188 Z" id="Shape" stroke="#FFFFFF" stroke-width="8" stroke-linecap="square" stroke-linejoin="round" sketch:type="MSShapeGroup"></path>
            <path d="M132.733,0 L199.483,48 L65.983,48 L132.733,0 L132.733,0 Z" id="Shape" stroke="#FFFFFF" stroke-width="8" stroke-linecap="square" stroke-linejoin="round" sketch:type="MSShapeGroup"></path>
            <path d="M32.608,0 L65.983,48 L0,48 L32.608,0 L32.608,0 Z" id="Shape" stroke="#FFFFFF" stroke-width="8" stroke-linecap="square" stroke-linejoin="round" sketch:type="MSShapeGroup"></path>
            <path d="M233.241,0 L267,48 L199.483,48 L233.242,0 L233.241,0 Z" id="Shape" stroke="#FFFFFF" stroke-width="8" stroke-linecap="square" stroke-linejoin="round" sketch:type="MSShapeGroup"></path>
            <path d="M66.75,48 L32.991,0 L133.5,0 L66.75,48 L66.75,48 Z" id="Shape" stroke="#FFFFFF" stroke-width="8" stroke-linecap="square" stroke-linejoin="round" sketch:type="MSShapeGroup"></path>
            <path d="M199.483,48 L233.242,0 L133.501,0 L199.484,48 L199.483,48 Z" id="Shape" stroke="#FFFFFF" stroke-width="8" stroke-linecap="square" stroke-linejoin="round" sketch:type="MSShapeGroup"></path>
            <path d="M132.733,188 L267,48 L199.483,48 L132.733,188 L132.733,188 Z" id="Shape" stroke="#FFFFFF" stroke-width="8" stroke-linecap="square" stroke-linejoin="round" sketch:type="MSShapeGroup"></path>
            <path d="M132.733,188 L0,48 L65.983,48 L132.733,188 L132.733,188 Z" id="Shape" stroke="#FFFFFF" stroke-width="8" stroke-linecap="square" stroke-linejoin="round" sketch:type="MSShapeGroup"></path>
            <path d="M185.786,190 L178.578,172.286 L180.992,172.286 L187.078,187.858 L193.198,172.286 L195.442,172.286 L188.234,190 L185.786,190 Z M197.754,190 C197.754,189.161329 197.827666,188.339671 197.975,187.535 C198.122334,186.730329 198.405665,185.954004 198.825,185.206 C199.244335,184.457996 199.82233,183.738337 200.559,183.047 C201.29567,182.355663 202.241994,181.704003 203.398,181.092 C204.010003,180.774665 204.672996,180.451668 205.387,180.123 C206.101004,179.794332 206.763997,179.426002 207.376,179.018 C207.988003,178.609998 208.492331,178.156669 208.889,177.658 C209.285669,177.159331 209.484,176.570003 209.484,175.89 C209.484,175.459331 209.387668,175.028669 209.195,174.598 C209.002332,174.167331 208.719002,173.782002 208.345,173.442 C207.970998,173.101998 207.506336,172.830001 206.951,172.626 C206.395664,172.421999 205.755337,172.32 205.03,172.32 C204.281996,172.32 203.60767,172.427666 203.007,172.643 C202.40633,172.858334 201.879336,173.113332 201.426,173.408 C200.972664,173.702668 200.593002,174.014332 200.287,174.343 C199.980998,174.671668 199.748667,174.937999 199.59,175.142 L198.06,173.476 C198.196001,173.339999 198.456665,173.090668 198.842,172.728 C199.227335,172.365332 199.731664,172.002668 200.355,171.64 C200.978336,171.277332 201.714996,170.954335 202.565,170.671 C203.415004,170.387665 204.372661,170.246 205.438,170.246 C206.458005,170.246 207.370329,170.387665 208.175,170.671 C208.979671,170.954335 209.66533,171.345331 210.232,171.844 C210.79867,172.342669 211.229332,172.914997 211.524,173.561 C211.818668,174.207003 211.966,174.892663 211.966,175.618 C211.966,176.570005 211.745002,177.391663 211.303,178.083 C210.860998,178.774337 210.32267,179.369331 209.688,179.868 C209.05333,180.366669 208.40167,180.774665 207.733,181.092 C207.06433,181.409335 206.514669,181.669999 206.084,181.874 C205.063995,182.327336 204.214003,182.769331 203.534,183.2 C202.853997,183.630669 202.298669,184.072664 201.868,184.526 C201.437331,184.979336 201.114334,185.477997 200.899,186.022 C200.683666,186.566003 200.530667,187.18933 200.44,187.892 L212.34,187.892 L212.34,190 L197.754,190 Z" id="v2" fill="#FFFFFF" sketch:type="MSShapeGroup"></path>
        </g>
    </g>
</svg>