<?xml version="1.0" encoding="UTF-8" standalone="no"?>
<svg width="23px" height="18px" viewBox="0 0 23 18" version="1.1" xmlns="http://www.w3.org/2000/svg" xmlns:xlink="http://www.w3.org/1999/xlink" xmlns:sketch="http://www.bohemiancoding.com/sketch/ns">
    <!-- Generator: Sketch 3.1.1 (8761) - http://www.bohemiancoding.com/sketch -->
    <title>Shape</title>
    <desc>Created with Sketch.</desc>
    <defs></defs>
    <g id="Page-1" stroke="none" stroke-width="1" fill="none" fill-rule="evenodd" sketch:type="MSPage">
        <path d="M22.999,2.12843144 C22.1530577,2.48973268 21.2431486,2.73406091 20.2886784,2.84411244 C21.2625543,2.28139614 22.0107496,1.39129386 22.3636449,0.330231024 C21.4515796,0.850726294 20.4417674,1.22933123 19.3672697,1.43282273 C18.5062341,0.549641929 17.280085,-0.002 15.9231274,-0.002 C13.3170213,-0.002 11.2046811,2.03222287 11.2046811,4.5419514 C11.2046811,4.8984076 11.2463673,5.24517373 11.3268648,5.57740475 C7.4054873,5.38775621 3.92828346,3.57848143 1.60104369,0.829269707 C1.19496263,1.50065323 0.962094903,2.28070399 0.962094903,3.11405014 C0.962094903,4.69076321 1.79510012,6.08128847 3.06149805,6.89663878 C2.28814721,6.87310574 1.56079494,6.66892209 0.924002344,6.3283853 C0.923283616,6.34707329 0.923283616,6.36645343 0.923283616,6.38583358 C0.923283616,8.58755626 2.54976404,10.4238248 4.70810284,10.8418822 C4.31208397,10.9457044 3.89522199,11.0010762 3.4647042,11.0010762 C3.16068245,11.0010762 2.86528543,10.9726981 2.57707569,10.9194028 C3.17793191,12.7245246 4.92012746,14.0382215 6.98503169,14.0749053 C5.3700509,15.2937779 3.33533324,16.0198411 1.12452733,16.0198411 C0.743601731,16.0198411 0.368425955,15.9983845 -0.001,15.9561635 C2.0869035,17.2456352 4.56723224,17.998 7.23227396,17.998 C15.9116277,17.998 20.6573857,11.0737517 20.6573857,5.068676 C20.6573857,4.87141383 20.6530733,4.67553595 20.6437299,4.48104237 C21.566576,3.83942121 22.3665198,3.03929816 22.999,2.12843144 L22.999,2.12843144 Z" id="Shape" fill="#FFFFFF" sketch:type="MSShapeGroup"></path>
    </g>
</svg>