<svg xmlns="http://www.w3.org/2000/svg" xmlns:xlink="http://www.w3.org/1999/xlink" version="1.1" width="32" height="32" viewBox="0 0 32 32"><style>.style0{fill:#fff;}</style><path d="M4.259 23.467c-2.35 0-4.259 1.917-4.259 4.3 0 2.3 1.9 4.2 4.3 4.2 2.4 0 4.265-1.895 4.265-4.244-0-2.336-1.907-4.252-4.265-4.252zM0.005 10.873v6.133c3.993 0 7.7 1.6 10.6 4.4 2.8 2.8 4.4 6.6 4.4 10.603h6.16c-0-11.651-9.478-21.127-21.121-21.127zM0.012 0v6.136c14.243 0 25.8 11.6 25.8 25.864h6.152c0-17.64-14.352-32-31.988-32z" class="style0"/></svg>