<?xml version="1.0" encoding="UTF-8" standalone="no"?>
<svg width="275px" height="197px" viewBox="0 0 275 197" version="1.1" xmlns="http://www.w3.org/2000/svg" xmlns:xlink="http://www.w3.org/1999/xlink" xmlns:sketch="http://www.bohemiancoding.com/sketch/ns">
    <!-- Generator: Sketch 3.0.3 (7891) - http://www.bohemiancoding.com/sketch -->
    <title>Logo</title>
    <desc>Created with Sketch.</desc>
    <defs></defs>
    <g id="Page-1" stroke="none" stroke-width="1" fill="none" fill-rule="evenodd" sketch:type="MSPage">
        <g id="Logo" sketch:type="MSLayerGroup" transform="translate(4.000000, 4.000000)" stroke="#FFFFFF" stroke-width="8" stroke-linecap="round" stroke-linejoin="round">
            <path d="M132.732759,188 L199.482759,48 L65.9827586,48 L132.732759,188 L132.732759,188 Z" id="Triangle-1" sketch:type="MSShapeGroup"></path>
            <path d="M132.732759,0 L199.482759,48 L65.9827586,48 L132.732759,0 L132.732759,0 Z" id="Triangle-4" sketch:type="MSShapeGroup"></path>
            <path d="M32.6077586,0 L65.9827586,48 L0,48 L32.6077586,0 L32.6077586,0 Z" id="Triangle-5" sketch:type="MSShapeGroup"></path>
            <path d="M233.241379,0 L267,48 L199.482759,48 L233.241379,0 L233.241379,0 Z" id="Triangle-6" sketch:type="MSShapeGroup"></path>
            <path d="M66.75,48 L32.9913793,0 L133.5,0 L66.75,48 L66.75,48 Z" id="Triangle-7" sketch:type="MSShapeGroup"></path>
            <path d="M199.482759,48 L233.241379,0 L133.5,0 L199.482759,48 L199.482759,48 Z" id="Triangle-8" sketch:type="MSShapeGroup"></path>
            <path d="M132.732759,188 L267,48 L199.482759,48 L132.732759,188 L132.732759,188 Z" id="Triangle-2" sketch:type="MSShapeGroup"></path>
            <path d="M132.732759,188 L0,48 L65.9827586,48 L132.732759,188 L132.732759,188 Z" id="Triangle-3" sketch:type="MSShapeGroup"></path>
        </g>
    </g>
</svg>