<?xml version="1.0" encoding="utf-8"?> <!-- Generator: IcoMoon.io --> <!DOCTYPE svg PUBLIC "-//W3C//DTD SVG 1.1//EN" "http://www.w3.org/Graphics/SVG/1.1/DTD/svg11.dtd"> <svg width="32" height="32" viewBox="0 0 32 32" xmlns="http://www.w3.org/2000/svg" xmlns:xlink="http://www.w3.org/1999/xlink" fill="#ffffff"><g><path d="M 20.133,0C 13.594,0, 8.273,5.32, 8.273,11.863c0,1.566, 0.32,3.051, 0.871,4.418L0,25.426L 6.57,32l 9.148-9.152 c 1.367,0.555, 2.852,0.875, 4.414,0.875c 6.543,0, 11.867-5.32, 11.867-11.858C 32,5.32, 26.676,0, 20.133,0z M 20.133,19.727 c-4.332,0-7.863-3.531-7.863-7.862c0-4.336, 3.531-7.867, 7.863-7.867c 4.34,0, 7.871,3.531, 7.871,7.867 C 28.004,16.195, 24.473,19.727, 20.133,19.727z"></path></g></svg>